<svg width="48" height="48" viewBox="0 0 48 48" fill="none" xmlns="http://www.w3.org/2000/svg">
<path d="M16.8 31.5999C16.8 27.4782 18.4969 23.7471 21.2252 21.061C19.7124 20.3629 18.0663 20.001 16.4002 20.0002C9.99365 20.0002 4.80005 25.1938 4.80005 31.5999C4.80005 38.0065 9.99365 43.2001 16.4002 43.2001C18.1253 43.2001 19.7545 42.8142 21.2252 42.1393C18.4969 39.4532 16.8 35.7222 16.8 31.5999Z" fill="#FC7018"/>
<path d="M31.5998 31.2C27.478 31.2 23.747 29.5032 21.0609 26.7734C20.3629 28.2868 20.001 29.9333 20.0001 31.5998C20.0001 38.0064 25.1937 43.2 31.5998 43.2C38.0064 43.2 43.2 38.0064 43.2 31.5998C43.2 29.8747 42.814 28.2456 42.1392 26.7734C39.4531 29.5032 35.722 31.2 31.5998 31.2Z" fill="#FC7018"/>
<path d="M31.5998 4.80005C29.8747 4.80005 28.2456 5.18597 26.7734 5.86085C29.5032 8.54693 31.2 12.278 31.2 16.4002C31.2 20.522 29.5032 24.253 26.7734 26.9391C28.2868 27.6371 29.9333 27.999 31.5998 27.9999C38.0064 27.9999 43.2 22.8063 43.2 16.4002C43.2 9.99365 38.0064 4.80005 31.5998 4.80005Z" fill="#FC7018"/>
<path d="M16.4002 16.8C20.522 16.8 24.253 18.4969 26.9391 21.2252C27.6372 19.7124 27.9991 18.0663 27.9999 16.4002C27.9999 9.99365 22.8063 4.80005 16.4002 4.80005C9.99365 4.80005 4.80005 9.99365 4.80005 16.4002C4.80005 18.1253 5.18597 19.7545 5.86085 21.2252C8.54693 18.4969 12.278 16.8 16.4002 16.8Z" fill="#FC7018"/>
</svg>
