<svg width="122" height="122" fill="none" xmlns="http://www.w3.org/2000/svg"><circle cx="61" cy="61" r="61" fill="#0195D7"/><path d="M43.6 89V33h22.8c5.227 0 9.52.773 12.88 2.32 3.36 1.493 5.84 3.68 7.44 6.56 1.653 2.827 2.48 6.24 2.48 10.24 0 3.947-.827 7.36-2.48 10.24-1.6 2.88-4.08 5.093-7.44 6.64-3.36 1.493-7.653 2.24-12.88 2.24H58V89H43.6zM58 59.4h6.8c3.68 0 6.267-.613 7.76-1.84 1.493-1.227 2.24-3.04 2.24-5.44 0-2.4-.747-4.213-2.24-5.44-1.493-1.227-4.08-1.84-7.76-1.84H58V59.4z" fill="#fff"/></svg>