<svg width="239" height="48" fill="none" xmlns="http://www.w3.org/2000/svg"><path d="M16.8 31.6c0-4.122 1.697-7.853 4.425-10.539a11.529 11.529 0 00-4.825-1.06C9.994 20 4.8 25.193 4.8 31.6s5.194 11.6 11.6 11.6a11.54 11.54 0 004.825-1.06A14.752 14.752 0 0116.8 31.6z" fill="#FC7018"/><path d="M31.6 31.2a14.746 14.746 0 01-10.54-4.427A11.539 11.539 0 0020 31.6c0 6.406 5.194 11.6 11.6 11.6s11.6-5.194 11.6-11.6a11.56 11.56 0 00-1.06-4.827A14.747 14.747 0 0131.6 31.2z" fill="#FC7018"/><path d="M31.6 4.8a11.54 11.54 0 00-4.827 1.06A14.747 14.747 0 0131.2 16.4a14.75 14.75 0 01-4.427 10.54A11.558 11.558 0 0031.6 28c6.406 0 11.6-5.194 11.6-11.6S38.006 4.8 31.6 4.8z" fill="#FC7018"/><path d="M16.4 16.8c4.122 0 7.853 1.697 10.54 4.425A11.529 11.529 0 0028 16.4c0-6.406-5.194-11.6-11.6-11.6S4.8 9.994 4.8 16.4c0 1.725.386 3.355 1.06 4.825A14.752 14.752 0 0116.4 16.8z" fill="#FC7018"/><path d="M68.15 34.854c-1.718 0-3.151-.24-4.297-.72-1.146-.481-2.025-1.147-2.635-1.997-.591-.87-.915-1.877-.97-3.023h4.16c.147.721.48 1.276.998 1.664.536.388 1.45.582 2.745.582 1.331 0 2.283-.175 2.856-.527.592-.37.887-.887.887-1.552 0-.555-.175-1.008-.526-1.36-.333-.35-.85-.646-1.553-.887-.703-.258-1.618-.499-2.746-.72-1.312-.26-2.44-.62-3.383-1.082-.942-.462-1.663-1.09-2.163-1.886-.48-.795-.72-1.802-.72-3.022 0-1.128.295-2.099.887-2.912.591-.832 1.442-1.479 2.551-1.941 1.11-.462 2.412-.693 3.91-.693 1.627 0 2.958.23 3.993.693 1.054.444 1.849 1.072 2.385 1.886.554.813.878 1.774.97 2.884h-4.131c-.148-.666-.453-1.156-.915-1.47-.463-.333-1.23-.5-2.302-.5-1.09 0-1.895.176-2.413.527-.517.352-.776.823-.776 1.415 0 .72.351 1.285 1.054 1.691.72.407 1.848.758 3.383 1.054 1.053.203 1.987.453 2.8.749.832.296 1.535.684 2.108 1.164a4.486 4.486 0 011.303 1.692c.296.666.444 1.47.444 2.413 0 1.183-.314 2.218-.943 3.105-.61.888-1.507 1.572-2.69 2.052-1.164.48-2.588.721-4.27.721zm13.788-.332l-4.104-14.697h3.937l2.385 9.705 2.967-9.705h3.383l3.106 9.705 2.523-9.705h3.605l-4.104 14.697h-3.66l-3.244-10.26-3.134 10.26h-3.66zm20.328 0V19.825h3.633v14.697h-3.633zm1.802-16.112c-.647 0-1.183-.203-1.608-.61-.407-.407-.61-.933-.61-1.58s.203-1.174.61-1.581c.425-.407.952-.61 1.581-.61.665 0 1.201.203 1.608.61.425.407.638.934.638 1.58 0 .648-.213 1.174-.638 1.581-.407.407-.933.61-1.581.61zm6.281 16.112V22.875h-1.83v-3.05h1.83v-.555c0-.943.166-1.729.499-2.357.333-.647.878-1.137 1.636-1.47.777-.333 1.812-.499 3.106-.499.277 0 .619.01 1.026.028.425 0 .776.018 1.054.055v3.106a6.963 6.963 0 00-.915-.055 14.75 14.75 0 00-.888-.028c-.702 0-1.192.12-1.469.36-.278.222-.416.601-.416 1.137v.278h3.41v3.05h-3.41v11.647h-3.633zm15.501.166c-1.146 0-2.089-.157-2.828-.471a3.248 3.248 0 01-1.637-1.581c-.332-.721-.499-1.655-.499-2.8v-6.961h-1.968v-3.05h1.968v-3.328h3.633v3.328h3.549v3.05h-3.549v6.378c0 .832.148 1.433.444 1.802.314.352.887.527 1.719.527.555 0 1.109-.028 1.664-.083v3.05a19.05 19.05 0 01-1.109.083c-.37.037-.832.056-1.387.056zm20.531.166c-1.682 0-3.189-.332-4.52-.998-1.312-.684-2.348-1.747-3.106-3.189-.739-1.46-1.109-3.365-1.109-5.712V24.4c0-1.7.222-3.152.666-4.354.443-1.22 1.063-2.218 1.858-2.994a7.71 7.71 0 012.8-1.72c1.054-.37 2.191-.554 3.411-.554 1.091 0 2.108.138 3.05.416a7.723 7.723 0 012.552 1.192 5.883 5.883 0 011.774 2.08c.462.85.731 1.848.804 2.995h-4.325c-.204-1.091-.647-1.895-1.331-2.413-.684-.517-1.526-.776-2.524-.776-.776 0-1.497.194-2.163.582-.665.37-1.211.998-1.636 1.886-.407.887-.61 2.107-.61 3.66v.555c0 1.22.129 2.246.388 3.078.259.813.601 1.47 1.026 1.968.425.481.897.832 1.414 1.054a4.292 4.292 0 001.581.305c1.054 0 1.923-.268 2.607-.804.684-.555 1.1-1.35 1.248-2.385h4.325c-.092 1.202-.36 2.237-.804 3.106a6.001 6.001 0 01-1.747 2.08c-.721.517-1.562.896-2.523 1.137-.961.24-1.997.36-3.106.36zm10.96-.332V15.11h3.632v6.739a4.995 4.995 0 012.413-1.997c.61-.24 1.34-.36 2.19-.36 1.794 0 3.125.48 3.994 1.442.887.961 1.331 2.348 1.331 4.16v9.428h-3.661v-8.57c0-1.09-.231-1.922-.693-2.495-.444-.573-1.211-.86-2.302-.86-.776 0-1.405.158-1.885.472-.481.314-.832.73-1.054 1.248a3.98 3.98 0 00-.333 1.636v8.569h-3.632zm21.171.332c-1.054 0-1.951-.194-2.69-.582a4.186 4.186 0 01-1.692-1.664c-.388-.702-.582-1.497-.582-2.385 0-1.479.434-2.588 1.303-3.327.888-.74 2.209-1.11 3.966-1.11h4.381v-.693c0-.961-.222-1.636-.666-2.024-.425-.388-1.109-.582-2.052-.582-.831 0-1.432.148-1.802.443-.37.278-.582.629-.638 1.054h-3.66c.055-.85.323-1.608.804-2.274.499-.684 1.202-1.22 2.107-1.608.925-.407 2.034-.61 3.328-.61 1.257 0 2.348.185 3.272.554.943.37 1.673.97 2.191 1.803.518.813.776 1.913.776 3.3v5.629c0 .776.01 1.46.028 2.052.037.573.093 1.137.166 1.692h-3.41a11.18 11.18 0 01-.139-.916v-.97c-.388.591-.998 1.109-1.83 1.553-.832.443-1.886.665-3.161.665zm1.137-2.828c.591 0 1.155-.102 1.691-.305a3.027 3.027 0 001.331-.998c.351-.463.527-1.045.527-1.747v-.694h-3.688c-.703 0-1.257.167-1.664.5-.388.314-.582.748-.582 1.303 0 .591.203 1.063.61 1.414s.998.527 1.775.527zm10.431 2.495V19.826h3.328v2.163c.37-.666.943-1.248 1.719-1.747.777-.5 1.84-.75 3.189-.75 1.793 0 3.125.481 3.993 1.443.888.961 1.331 2.348 1.331 4.16v9.428h-3.66v-8.597c0-1.09-.231-1.913-.693-2.468-.444-.573-1.211-.86-2.302-.86-.776 0-1.405.158-1.885.472-.481.314-.832.72-1.054 1.22a3.98 3.98 0 00-.333 1.636v8.597h-3.633zm23.14 5.88c-1.553 0-2.791-.195-3.716-.583-.924-.37-1.608-.887-2.052-1.553-.425-.666-.674-1.451-.748-2.357h3.716c.11.388.36.749.748 1.081.389.352 1.073.527 2.052.527 1.239 0 2.163-.295 2.773-.887.61-.592.915-1.479.915-2.662v-1.775a5.268 5.268 0 01-1.858 1.747c-.776.425-1.663.638-2.662.638-1.275 0-2.384-.277-3.327-.832-.925-.555-1.646-1.377-2.163-2.468-.499-1.11-.749-2.477-.749-4.104v-.555c0-1.534.25-2.828.749-3.882.517-1.053 1.248-1.858 2.191-2.412.942-.555 2.042-.832 3.299-.832 1.221 0 2.228.25 3.023.748.795.5 1.377 1.082 1.747 1.748v-2.163h3.383V33.69c0 2.181-.601 3.845-1.802 4.991-1.202 1.146-3.041 1.72-5.519 1.72zm.028-8.93c.74 0 1.377-.13 1.913-.388a2.84 2.84 0 001.276-1.276c.314-.573.471-1.266.471-2.08v-1.663c0-.777-.157-1.414-.471-1.914a2.975 2.975 0 00-1.331-1.136 4.098 4.098 0 00-1.858-.416c-.998 0-1.812.342-2.44 1.026-.629.665-.943 1.663-.943 2.994v.555c0 1.424.323 2.496.971 3.217.647.72 1.451 1.081 2.412 1.081zm17.31 3.383c-1.331 0-2.56-.268-3.688-.804-1.109-.554-1.997-1.386-2.662-2.496-.666-1.127-.998-2.542-.998-4.242v-.555c0-1.627.314-2.976.942-4.049.647-1.072 1.507-1.876 2.579-2.412 1.073-.536 2.256-.804 3.55-.804 2.311 0 4.067.61 5.269 1.83 1.201 1.22 1.802 2.986 1.802 5.296v1.553h-10.399c.037.87.222 1.58.555 2.136.351.536.795.933 1.331 1.192.536.24 1.109.36 1.719.36.943 0 1.655-.138 2.135-.416a2.304 2.304 0 001.026-1.22h3.356c-.296 1.535-1.026 2.69-2.191 3.467-1.165.776-2.607 1.164-4.326 1.164zm-.139-12.367a5.06 5.06 0 00-1.663.277 2.436 2.436 0 00-1.276.998c-.314.462-.49 1.082-.527 1.858h6.85c-.019-.832-.185-1.47-.5-1.913a2.214 2.214 0 00-1.192-.943c-.499-.185-1.063-.277-1.692-.277z" fill="#151414"/></svg>