<svg width="46" height="42" fill="none" xmlns="http://www.w3.org/2000/svg"><path fill="#fff" d="M3.5 2.5h39v39h-39z"/><path stroke="#000" d="M3.5 2.5h39v39h-39z"/><path stroke="#000" stroke-opacity=".2" d="M3.5 2.5h39v39h-39z"/><path d="M2.598 38.919L23 3.58l20.402 35.34H2.598z" stroke="#151414" stroke-width="3"/><path d="M21.882 29.51c-.864 0-1.595-.145-2.192-.433-.587-.288-1.035-.682-1.344-1.184-.31-.512-.464-1.098-.464-1.76h1.92c0 .534.166.95.496 1.248.342.288.87.432 1.584.432.694 0 1.21-.144 1.552-.432.352-.298.528-.714.528-1.248 0-.544-.16-.97-.48-1.28-.32-.32-.853-.48-1.6-.48h-1.12v-1.6h1.12c.64 0 1.12-.133 1.44-.4.32-.277.48-.672.48-1.184 0-.512-.154-.896-.464-1.152-.299-.256-.784-.384-1.456-.384-.661 0-1.152.134-1.472.4-.31.267-.464.64-.464 1.12h-1.92c0-.65.144-1.216.432-1.696.299-.48.736-.853 1.312-1.12.576-.266 1.28-.4 2.112-.4.843 0 1.547.139 2.112.416.566.267.992.63 1.28 1.088.299.448.448.95.448 1.504 0 .64-.17 1.179-.512 1.616-.341.427-.81.73-1.408.912.65.192 1.157.518 1.52.976.373.448.56 1.056.56 1.824 0 .598-.155 1.142-.464 1.632-.299.49-.746.88-1.344 1.168-.587.278-1.317.416-2.192.416z" fill="#151414"/></svg>