<svg width="46" height="42" fill="none" xmlns="http://www.w3.org/2000/svg"><path fill="#fff" d="M3.5 2.5h39v39h-39z"/><path stroke="#000" d="M3.5 2.5h39v39h-39z"/><path stroke="#000" stroke-opacity=".2" d="M3.5 2.5h39v39h-39z"/><path d="M2.598 38.919L23 3.58l20.402 35.34H2.598z" stroke="#151414" stroke-width="3"/><path d="M18.917 33.333v-1.838l5.104-4.42c.56-.495 1.01-.919 1.35-1.27.338-.366.586-.705.742-1.017a2.36 2.36 0 00.235-1.037c0-.665-.202-1.206-.606-1.623-.391-.417-.939-.626-1.643-.626-.834 0-1.486.228-1.955.685-.456.443-.685 1.127-.685 2.053h-2.346c0-.965.202-1.806.606-2.523a4.24 4.24 0 011.74-1.681c.743-.405 1.623-.607 2.64-.607.991 0 1.825.19 2.503.567a3.682 3.682 0 011.565 1.526c.352.652.528 1.395.528 2.229a3.99 3.99 0 01-.391 1.74 6.49 6.49 0 01-1.076 1.545 13 13 0 01-1.564 1.428l-3.481 2.835h6.707v2.034h-9.973z" fill="#151414"/></svg>